<svg xmlns="http://www.w3.org/2000/svg" viewBox="0 0 48 48"><defs><style>.cls-1{fill:#dad7e5}.cls-2{fill:#edebf2}.cls-5{fill:#374f68}</style></defs><g id="Website_Blog" data-name="Website Blog"><path class="cls-1" d="M45 9v24H3V9a2 2 0 0 1 2-2h38a2 2 0 0 1 2 2z"/><path class="cls-2" d="M45 9v22H30A24 24 0 0 1 6 7h37a2 2 0 0 1 2 2z"/><path style="fill:#8bd1ea" d="M5 9h38v24H5z"/><path class="cls-1" d="M45 33v4a2 2 0 0 1-2 2H5a2 2 0 0 1-2-2v-4z"/><path class="cls-2" d="M45 33v4H10a4 4 0 0 1-4-4z"/><path style="fill:#c6c3d8" d="M19 39h10v8H19z"/><path class="cls-1" d="M27 47h-8v-6h2a6 6 0 0 1 6 6z"/><path class="cls-5" d="M39 3v4H9V3a2 2 0 0 1 2-2h26a2 2 0 0 1 2 2z"/><path d="M39 3v4H12V3a2 2 0 0 1 2-2h23a2 2 0 0 1 2 2z" style="fill:#425b72"/><path class="cls-5" d="M25 36a1 1 0 0 0-2 0 1 1 0 0 0 2 0z"/><path d="M14 4a1 1 0 0 0-2 0 1 1 0 0 0 2 0z" style="fill:#db5669"/><path d="M18 4a1 1 0 0 0-2 0 1 1 0 0 0 2 0z" style="fill:#6fabe6"/><path d="M22 4a1 1 0 0 0-2 0 1 1 0 0 0 2 0z" style="fill:#9dcc6b"/><path class="cls-1" d="M33 47H15a1 1 0 0 1 0-2h18a1 1 0 0 1 0 2z"/><path style="fill:#9fdbf3" d="M9 7h30v26H9z"/><path d="M39 7v24h-3A24 24 0 0 1 12 7z" style="fill:#b2e5fb"/><path d="M30 19h-2v-2a4 4 0 0 0-4-4h-3a4 4 0 0 0-4 4v6a4 4 0 0 0 4 4h6a4 4 0 0 0 4-4v-3a1 1 0 0 0-1-1zm-11-2a2 2 0 0 1 2-2h3a2 2 0 0 1 2 2v2h-7zm10 6a2 2 0 0 1-2 2h-6a2 2 0 0 1-2-2v-2h10z" style="fill:#fc6"/></g></svg>